# xmcd
#
# Track frame offsets:
#	150
#	15155
#	36327
#	51062
#	69617
#	88975
#	106745
#	123712
#	143437
#	156655
#	172692
#	192450
#
# Disc length: 2805 seconds
#
# Revision: 2
# Processed by: cddbd v1.4PL0 Copyright (c) Steve Scherf et al.
# Submitted via: audiograbber 1.81.01
#
DISCID=9e0af30c
DTITLE=Studebaker John and The Hawks - Too Tough
DYEAR=1994
DGENRE=Blues
TTITLE0=Your Hoodoo Man
TTITLE1=This City
TTITLE2=Somewhere In Your Heart
TTITLE3=Real Love
TTITLE4=Boogie Walk
TTITLE5=Satisfy My Soul
TTITLE6=Too Tough
TTITLE7=Somebody Forgot To Tell My Heart
TTITLE8=Out Of Control
TTITLE9=Flame Of Desire
TTITLE10=For Lovin' You
TTITLE11=Everyday
EXTD=
EXTT0=
EXTT1=
EXTT2=
EXTT3=
EXTT4=
EXTT5=
EXTT6=
EXTT7=
EXTT8=
EXTT9=
EXTT10=
EXTT11=
PLAYORDER=
